<svg width="104" height="40" viewBox="0 0 104 40" fill="none" xmlns="http://www.w3.org/2000/svg">
<g clip-path="url(#clip0_131_277)">
<path d="M7.48387 4.19662V0H3.26575V4.19662H0V7.71429H3.26575V21.0445H7.48694V9.77573L4.62366 7.71121H11.5853V4.19662H7.49002H7.48387Z" fill="#020A19"/>
<path d="M16.8357 4.19336H12.6145V21.0474H16.8357V4.19336Z" fill="#020A19"/>
<path d="M31.3609 4.19652V6.51296C30.8324 5.64353 30.092 4.97993 29.1366 4.50989C28.1873 4.04906 27.1581 3.8125 26.0613 3.8125C23.7326 3.8125 21.877 4.65735 20.5037 6.35013C19.1305 8.04292 18.4392 10.1259 18.4392 12.6021C18.4392 15.0782 19.1305 17.1919 20.5037 18.8847C21.877 20.5775 23.7326 21.4223 26.0613 21.4223C27.1581 21.4223 28.1873 21.1888 29.1366 20.7249C30.092 20.258 30.8294 19.5913 31.3609 18.7219V28.516H35.5821V4.19652H31.3609ZM30.2948 16.1904C29.4807 17.1643 28.3962 17.6497 27.0414 17.6497C25.6865 17.6497 24.645 17.1704 23.8555 16.2088C23.0598 15.2411 22.6604 14.0398 22.6604 12.6051C22.6604 11.1704 23.0598 9.9999 23.8555 9.03216C24.645 8.07056 25.7111 7.5913 27.0414 7.5913C28.3716 7.5913 29.4561 8.07056 30.2825 9.03216C31.1089 9.9999 31.5206 11.1888 31.5206 12.6051C31.5206 14.0214 31.1151 15.2165 30.2948 16.1904Z" fill="#020A19"/>
<path d="M45.5207 21.4898C42.8325 21.4898 40.6973 20.6849 39.109 19.0782C37.5207 17.4714 36.728 15.3117 36.728 12.605C36.728 9.89844 37.5053 7.87694 39.0598 6.22717C40.6144 4.5774 42.6635 3.75098 45.2011 3.75098C47.7388 3.75098 49.5483 4.5436 50.8816 6.13193C52.215 7.72025 52.8816 9.82471 52.8816 12.4484C52.8816 12.9553 52.8386 13.4868 52.7557 14.0367H41.0445C41.0445 16.1319 42.768 18.0398 45.45 18.1381C48.3041 18.2425 50.4085 17.3117 51.4807 16.6941C51.791 16.516 52.1597 16.8109 52.0491 17.1519C51.5483 18.6941 50.0214 21.496 45.5207 21.496V21.4898ZM41.0137 10.9522H48.7587C48.7587 9.80935 48.4515 8.90919 47.8371 8.25482C47.2227 7.60044 46.344 7.27171 45.2042 7.27171C43.9968 7.27171 43.026 7.58815 42.2856 8.22409C41.5452 8.86004 41.1213 9.76941 41.0168 10.9522H41.0137Z" fill="#020A19"/>
<path d="M61.1581 21.4253C58.8294 21.4253 56.9799 20.5804 55.6036 18.8876C54.2272 17.1948 53.5391 15.0996 53.5391 12.605C53.5391 10.1104 54.2272 8.04584 55.6036 6.35306C56.9799 4.66028 58.8294 3.81543 61.1581 3.81543C62.258 3.81543 63.2841 4.04892 64.2364 4.51282C65.1888 4.97979 65.9292 5.64646 66.4577 6.51282V4.19638H70.6788V21.0505H66.4577V18.734C65.9292 19.6004 65.1888 20.267 64.2364 20.734C63.2841 21.1979 62.258 21.4314 61.1581 21.4314V21.4253ZM62.1412 17.6495C63.4961 17.6495 64.5805 17.1641 65.3947 16.1902C66.2088 15.2164 66.6174 14.0213 66.6174 12.605C66.6174 11.1887 66.2057 9.99669 65.3793 9.03509C64.5529 8.07349 63.4745 7.59116 62.1412 7.59116C60.8079 7.59116 59.7449 8.07349 58.9523 9.03509C58.1596 9.99669 57.7633 11.1887 57.7633 12.605C57.7633 14.0213 58.1596 15.244 58.9523 16.2087C59.7449 17.1703 60.8079 17.6526 62.1412 17.6526V17.6495Z" fill="#020A19"/>
<path d="M78.298 21.4901C75.9908 21.4901 73.9693 20.9832 72.2366 19.9663V16.1568H72.4578C74.1506 17.2566 76.0953 17.8066 78.298 17.8066C79.0169 17.8066 79.6375 17.6806 80.1536 17.4256C80.6728 17.1706 80.9309 16.7589 80.9309 16.1875C80.9309 15.8711 80.8357 15.6007 80.6452 15.3795C80.4547 15.1583 80.2489 14.9986 80.0277 14.9033C79.8065 14.8081 79.5054 14.7067 79.1244 14.6023L76.553 13.9663C75.1767 13.6069 74.0768 13.0262 73.2535 12.2213C72.4271 11.4164 72.0154 10.3903 72.0154 9.14297C72.0154 7.40718 72.639 6.07384 73.8894 5.14297C75.1367 4.21209 76.7251 3.74512 78.6513 3.74512C80.8725 3.74512 82.765 4.25203 84.3318 5.26893V9.07845H84.0768C82.553 7.9786 80.7435 7.42868 78.6483 7.42868C77.9509 7.42868 77.3579 7.55464 76.8695 7.80963C76.381 8.06463 76.1383 8.46708 76.1383 9.01701C76.1383 9.46248 76.2919 9.78813 76.5991 10.0001C76.9063 10.2121 77.3549 10.3934 77.9478 10.5408L80.4854 11.2075C81.8403 11.5454 82.9401 12.1291 83.785 12.9525C84.6298 13.7789 85.0538 14.805 85.0538 16.0308C85.0538 17.8496 84.4301 19.2167 83.1797 20.1261C81.9324 21.0354 80.3011 21.4901 78.2919 21.4901H78.298Z" fill="#020A19"/>
<path d="M87.8801 25.966V25.711L91.5944 18.347L84.771 4.41456V4.19336H89.4684L93.9108 13.9998L98.4484 4.19336H103.115V4.41456L92.5467 25.966H87.8801Z" fill="#020A19"/>
<path d="M3.77571 23.1706C13.662 36.1844 37.7634 38.2796 50.7926 23.1491C50.9155 23.0078 51.1275 22.9924 51.2688 23.1122C51.3671 23.1952 51.404 23.3242 51.3794 23.4409C50.8387 25.9048 49.6805 28.2612 48.1167 30.3564C38.3441 43.1521 16.0676 43.232 6.22732 30.4763C4.66357 28.3595 3.53915 25.9294 3.17355 23.4225C3.12133 23.0876 3.57908 22.8941 3.77878 23.1706H3.77571Z" fill="#093BAA"/>
</g>
<defs>
<clipPath id="clip0_131_277">
<rect width="103.115" height="40" fill="white"/>
</clipPath>
</defs>
</svg>
